ffmpeg started on 2025-06-21 at 12:42:32
Report written to "D:\Convert\FFMetrics\reports\psnr_report-6.txt"
Log level: 32
Command line:
ffmpeg -hide_banner -nostdin -i "G:\\\xc0\xed\xe8\xec\xe5\\[\xd2\xee\xef-4]\\\xc4\xe5\xf0\xe6\xe0\xf1\xfc \xc7\xe0 \xd0\xf3\xea\xe8\\Hand_Shakers_[10]_[AniLibria.TV]_[HDTV-Rip_720p]_HEVC.mkv" -i "G:\\\xc0\xed\xe8\xec\xe5\\[\xd2\xee\xef-4]\\\xc4\xe5\xf0\xe6\xe0\xf1\xfc \xc7\xe0 \xd0\xf3\xea\xe8\\Hand_Shakers_[10]_[AniLibria.TV]_[HDTV-Rip_720p].mkv" -lavfi "[0:v]settb=AVTB,setpts=PTS-STARTPTS,format=pix_fmts=yuv420p10,fps=30000/1001,scale=1280:720:flags=bicubic[main];[1:v]settb=AVTB,setpts=PTS-STARTPTS,format=pix_fmts=yuv420p,fps=30000/1001,scale=1280:720:flags=bicubic[ref];[main][ref]psnr=eof_action=endall:stats_file='D\\:/Convert/FFMetrics/logs/psnr_logfile-6.txt'" -f null -
Input #0, matroska,webm, from 'G:\Аниме\[Топ-4]\Держась За Руки\Hand_Shakers_[10]_[AniLibria.TV]_[HDTV-Rip_720p]_HEVC.mkv':
  Metadata:
    ENCODER         : Lavf61.7.100
  Duration: 00:23:59.87, start: -0.021000, bitrate: 1399 kb/s
  Stream #0:0(jpn): Video: hevc (Main 10), yuv420p10le(tv, bt709, progressive), 1280x720 [SAR 1:1 DAR 16:9], 29.97 fps, 29.97 tbr, 1k tbn (default)
      Metadata:
        ENCODER         : Lavc61.19.100 libx265
        BPS             : 1200694
        DURATION        : 00:23:59.738366664
        NUMBER_OF_FRAMES: 43149
        NUMBER_OF_BYTES : 216085747
        _STATISTICS_WRITING_APP: mkvpropedit v66.0.0 ('Josie') 64-bit
        _STATISTICS_WRITING_DATE_UTC: 2025-06-20 17:26:54
        _STATISTICS_TAGS: BPS DURATION NUMBER_OF_FRAMES NUMBER_OF_BYTES
  Stream #0:1(rus): Audio: aac (LC), 48000 Hz, stereo, fltp (default) (forced)
      Metadata:
        title           : Амикири и Анзен
        ENCODER         : Lavc61.19.100 aac
        BPS             : 194174
        DURATION        : 00:23:59.850000000
        NUMBER_OF_FRAMES: 67494
        NUMBER_OF_BYTES : 34947835
        _STATISTICS_WRITING_APP: mkvpropedit v66.0.0 ('Josie') 64-bit
        _STATISTICS_WRITING_DATE_UTC: 2025-06-20 17:26:54
        _STATISTICS_TAGS: BPS DURATION NUMBER_OF_FRAMES NUMBER_OF_BYTES
  Stream #0:2(rus): Subtitle: ass (ssa) (default) (forced)
      Metadata:
        title           : Надписи
        BPS             : 34
        DURATION        : 00:23:43.950000000
        NUMBER_OF_FRAMES: 40
        NUMBER_OF_BYTES : 6158
        _STATISTICS_WRITING_APP: mkvpropedit v66.0.0 ('Josie') 64-bit
        _STATISTICS_WRITING_DATE_UTC: 2025-06-20 17:26:54
        _STATISTICS_TAGS: BPS DURATION NUMBER_OF_FRAMES NUMBER_OF_BYTES
  Stream #0:3(rus): Subtitle: ass (ssa)
      Metadata:
        title           : Субтитры
        BPS             : 180
        DURATION        : 00:23:48.710000000
        NUMBER_OF_FRAMES: 424
        NUMBER_OF_BYTES : 32286
        _STATISTICS_WRITING_APP: mkvpropedit v66.0.0 ('Josie') 64-bit
        _STATISTICS_WRITING_DATE_UTC: 2025-06-20 17:26:54
        _STATISTICS_TAGS: BPS DURATION NUMBER_OF_FRAMES NUMBER_OF_BYTES
Input #1, matroska,webm, from 'G:\Аниме\[Топ-4]\Держась За Руки\Hand_Shakers_[10]_[AniLibria.TV]_[HDTV-Rip_720p].mkv':
  Metadata:
    encoder         : libebml v1.4.2 + libmatroska v1.6.4
    creation_time   : 2024-12-27T17:08:01.000000Z
  Duration: 00:23:59.85, start: 0.000000, bitrate: 3124 kb/s
  Stream #1:0(jpn): Video: h264 (High), yuv420p(tv, bt709, progressive), 1280x720 [SAR 1:1 DAR 16:9], 29.97 fps, 29.97 tbr, 1k tbn (default)
      Metadata:
        BPS             : 2929359
        DURATION        : 00:23:59.738000000
        NUMBER_OF_FRAMES: 43149
        NUMBER_OF_BYTES : 527188770
        _STATISTICS_WRITING_APP: mkvmerge v66.0.0 ('Josie') 64-bit
        _STATISTICS_WRITING_DATE_UTC: 2024-12-27 17:08:01
        _STATISTICS_TAGS: BPS DURATION NUMBER_OF_FRAMES NUMBER_OF_BYTES
  Stream #1:1(rus): Audio: aac (LC), 48000 Hz, stereo, fltp (default) (forced)
      Metadata:
        title           : Амикири и Анзен
        BPS             : 189375
        DURATION        : 00:23:59.850000000
        NUMBER_OF_FRAMES: 67493
        NUMBER_OF_BYTES : 34083965
        _STATISTICS_WRITING_APP: mkvmerge v66.0.0 ('Josie') 64-bit
        _STATISTICS_WRITING_DATE_UTC: 2024-12-27 17:08:01
        _STATISTICS_TAGS: BPS DURATION NUMBER_OF_FRAMES NUMBER_OF_BYTES
  Stream #1:2(rus): Subtitle: ass (ssa) (default) (forced)
      Metadata:
        title           : Надписи
        BPS             : 34
        DURATION        : 00:23:43.950000000
        NUMBER_OF_FRAMES: 40
        NUMBER_OF_BYTES : 6158
        _STATISTICS_WRITING_APP: mkvmerge v66.0.0 ('Josie') 64-bit
        _STATISTICS_WRITING_DATE_UTC: 2024-12-27 17:08:01
        _STATISTICS_TAGS: BPS DURATION NUMBER_OF_FRAMES NUMBER_OF_BYTES
  Stream #1:3(rus): Subtitle: ass (ssa)
      Metadata:
        title           : Субтитры
        BPS             : 180
        DURATION        : 00:23:48.710000000
        NUMBER_OF_FRAMES: 424
        NUMBER_OF_BYTES : 32286
        _STATISTICS_WRITING_APP: mkvmerge v66.0.0 ('Josie') 64-bit
        _STATISTICS_WRITING_DATE_UTC: 2024-12-27 17:08:01
        _STATISTICS_TAGS: BPS DURATION NUMBER_OF_FRAMES NUMBER_OF_BYTES
  Stream #1:4: Attachment: ttf
      Metadata:
        filename        : 10436.ttf
        mimetype        : application/x-truetype-font
  Stream #1:5: Attachment: ttf
      Metadata:
        filename        : 8651.ttf
        mimetype        : application/x-truetype-font
  Stream #1:6: Attachment: ttf
      Metadata:
        filename        : 10322.ttf
        mimetype        : application/x-truetype-font
  Stream #1:7: Attachment: ttf
      Metadata:
        filename        : 10351.ttf
        mimetype        : application/x-truetype-font
  Stream #1:8: Attachment: ttf
      Metadata:
        filename        : 10403.ttf
        mimetype        : application/x-truetype-font
  Stream #1:9: Attachment: ttf
      Metadata:
        filename        : 10423.ttf
        mimetype        : application/x-truetype-font
Stream mapping:
  Stream #0:0 (hevc) -> settb:default
  Stream #1:0 (h264) -> settb:default
  psnr:default -> Stream #0:0 (wrapped_avframe)
  Stream #0:1 -> #0:1 (aac (native) -> pcm_s16le (native))
Output #0, null, to 'pipe:':
  Metadata:
    encoder         : Lavf61.7.100
  Stream #0:0: Video: wrapped_avframe, yuv420p10le(tv, bt709, progressive), 1280x720 [SAR 1:1 DAR 16:9], q=2-31, 200 kb/s, 29.97 fps, 29.97 tbn
      Metadata:
        encoder         : Lavc61.19.100 wrapped_avframe
  Stream #0:1(rus): Audio: pcm_s16le, 48000 Hz, stereo, s16, 1536 kb/s (default) (forced)
      Metadata:
        title           : Амикири и Анзен
        _STATISTICS_TAGS: BPS DURATION NUMBER_OF_FRAMES NUMBER_OF_BYTES
        BPS             : 194174
        DURATION        : 00:23:59.850000000
        NUMBER_OF_FRAMES: 67494
        NUMBER_OF_BYTES : 34947835
        _STATISTICS_WRITING_APP: mkvpropedit v66.0.0 ('Josie') 64-bit
        _STATISTICS_WRITING_DATE_UTC: 2025-06-20 17:26:54
        encoder         : Lavc61.19.100 pcm_s16le
frame=  471 fps=0.0 q=-0.0 size=N/A time=00:00:15.71 bitrate=N/A speed=30.4x    frame=  995 fps=965 q=-0.0 size=N/A time=00:00:33.19 bitrate=N/A speed=32.2x    frame= 1541 fps=996 q=-0.0 size=N/A time=00:00:51.41 bitrate=N/A speed=33.2x    frame= 1823 fps=882 q=-0.0 size=N/A time=00:01:00.82 bitrate=N/A speed=29.4x    frame= 2107 fps=816 q=-0.0 size=N/A time=00:01:10.30 bitrate=N/A speed=27.2x    frame= 2343 fps=755 q=-0.0 size=N/A time=00:01:18.17 bitrate=N/A speed=25.2x    frame= 2601 fps=718 q=-0.0 size=N/A time=00:01:26.78 bitrate=N/A speed=  24x    frame= 2849 fps=688 q=-0.0 size=N/A time=00:01:35.06 bitrate=N/A speed=  23x    frame= 3092 fps=663 q=-0.0 size=N/A time=00:01:43.16 bitrate=N/A speed=22.1x    frame= 3302 fps=637 q=-0.0 size=N/A time=00:01:50.17 bitrate=N/A speed=21.3x    frame= 3516 fps=617 q=-0.0 size=N/A time=00:01:57.31 bitrate=N/A speed=20.6x    frame= 3738 fps=603 q=-0.0 size=N/A time=00:02:04.72 bitrate=N/A speed=20.1x    frame= 4001 fps=596 q=-0.0 size=N/A time=00:02:13.50 bitrate=N/A speed=19.9x    frame= 4225 fps=583 q=-0.0 size=N/A time=00:02:20.97 bitrate=N/A speed=19.5x    frame= 4711 fps=607 q=-0.0 size=N/A time=00:02:37.19 bitrate=N/A speed=20.2x    frame= 5175 fps=625 q=-0.0 size=N/A time=00:02:52.67 bitrate=N/A speed=20.8x    frame= 5580 fps=634 q=-0.0 size=N/A time=00:03:06.18 bitrate=N/A speed=21.2x    frame= 6093 fps=654 q=-0.0 size=N/A time=00:03:23.30 bitrate=N/A speed=21.8x    frame= 6593 fps=670 q=-0.0 size=N/A time=00:03:39.98 bitrate=N/A speed=22.4x    frame= 7119 fps=688 q=-0.0 size=N/A time=00:03:57.53 bitrate=N/A speed=22.9x    frame= 7639 fps=703 q=-0.0 size=N/A time=00:04:14.88 bitrate=N/A speed=23.5x    frame= 8198 fps=720 q=-0.0 size=N/A time=00:04:33.53 bitrate=N/A speed=  24x    frame= 8728 fps=734 q=-0.0 size=N/A time=00:04:51.22 bitrate=N/A speed=24.5x    frame= 9318 fps=751 q=-0.0 size=N/A time=00:05:10.91 bitrate=N/A speed=  25x    frame= 9819 fps=760 q=-0.0 size=N/A time=00:05:27.62 bitrate=N/A speed=25.3x    frame=10323 fps=768 q=-0.0 size=N/A time=00:05:44.44 bitrate=N/A speed=25.6x    frame=10844 fps=777 q=-0.0 size=N/A time=00:06:01.82 bitrate=N/A speed=25.9x    frame=11360 fps=785 q=-0.0 size=N/A time=00:06:19.04 bitrate=N/A speed=26.2x    frame=11873 fps=792 q=-0.0 size=N/A time=00:06:36.16 bitrate=N/A speed=26.4x    frame=12338 fps=796 q=-0.0 size=N/A time=00:06:51.67 bitrate=N/A speed=26.5x    frame=12844 fps=802 q=-0.0 size=N/A time=00:07:08.56 bitrate=N/A speed=26.7x    frame=13391 fps=810 q=-0.0 size=N/A time=00:07:26.81 bitrate=N/A speed=  27x    frame=13851 fps=812 q=-0.0 size=N/A time=00:07:42.16 bitrate=N/A speed=27.1x    frame=14419 fps=821 q=-0.0 size=N/A time=00:08:01.11 bitrate=N/A speed=27.4x    frame=14991 fps=829 q=-0.0 size=N/A time=00:08:20.19 bitrate=N/A speed=27.7x    frame=15474 fps=832 q=-0.0 size=N/A time=00:08:36.31 bitrate=N/A speed=27.8x    frame=15972 fps=835 q=-0.0 size=N/A time=00:08:52.93 bitrate=N/A speed=27.9x    frame=16548 fps=843 q=-0.0 size=N/A time=00:09:12.15 bitrate=N/A speed=28.1x    frame=17086 fps=848 q=-0.0 size=N/A time=00:09:30.10 bitrate=N/A speed=28.3x    frame=17670 fps=855 q=-0.0 size=N/A time=00:09:49.58 bitrate=N/A speed=28.5x    frame=18204 fps=860 q=-0.0 size=N/A time=00:10:07.40 bitrate=N/A speed=28.7x    frame=18728 fps=863 q=-0.0 size=N/A time=00:10:24.89 bitrate=N/A speed=28.8x    frame=19189 fps=864 q=-0.0 size=N/A time=00:10:40.27 bitrate=N/A speed=28.8x    frame=19606 fps=863 q=-0.0 size=N/A time=00:10:54.18 bitrate=N/A speed=28.8x    frame=19977 fps=860 q=-0.0 size=N/A time=00:11:06.56 bitrate=N/A speed=28.7x    frame=20424 fps=860 q=-0.0 size=N/A time=00:11:21.48 bitrate=N/A speed=28.7x    frame=21006 fps=865 q=-0.0 size=N/A time=00:11:40.90 bitrate=N/A speed=28.9x    frame=21474 fps=867 q=-0.0 size=N/A time=00:11:56.51 bitrate=N/A speed=28.9x    frame=22060 fps=872 q=-0.0 size=N/A time=00:12:16.06 bitrate=N/A speed=29.1x    frame=22555 fps=874 q=-0.0 size=N/A time=00:12:32.58 bitrate=N/A speed=29.2x    frame=23065 fps=876 q=-0.0 size=N/A time=00:12:49.60 bitrate=N/A speed=29.2x    frame=23569 fps=878 q=-0.0 size=N/A time=00:13:06.41 bitrate=N/A speed=29.3x    frame=24102 fps=881 q=-0.0 size=N/A time=00:13:24.20 bitrate=N/A speed=29.4x    frame=24646 fps=884 q=-0.0 size=N/A time=00:13:42.35 bitrate=N/A speed=29.5x    frame=25214 fps=888 q=-0.0 size=N/A time=00:14:01.30 bitrate=N/A speed=29.6x    frame=25826 fps=893 q=-0.0 size=N/A time=00:14:21.72 bitrate=N/A speed=29.8x    frame=26413 fps=898 q=-0.0 size=N/A time=00:14:41.31 bitrate=N/A speed=  30x    frame=26895 fps=898 q=-0.0 size=N/A time=00:14:57.39 bitrate=N/A speed=  30x    frame=27387 fps=899 q=-0.0 size=N/A time=00:15:13.81 bitrate=N/A speed=  30x    frame=27775 fps=897 q=-0.0 size=N/A time=00:15:26.75 bitrate=N/A speed=29.9x    frame=28184 fps=895 q=-0.0 size=N/A time=00:15:40.40 bitrate=N/A speed=29.9x    frame=28674 fps=896 q=-0.0 size=N/A time=00:15:56.75 bitrate=N/A speed=29.9x    frame=29186 fps=898 q=-0.0 size=N/A time=00:16:13.83 bitrate=N/A speed=29.9x    frame=29613 fps=896 q=-0.0 size=N/A time=00:16:28.08 bitrate=N/A speed=29.9x    frame=30094 fps=897 q=-0.0 size=N/A time=00:16:44.13 bitrate=N/A speed=29.9x    frame=30484 fps=895 q=-0.0 size=N/A time=00:16:57.14 bitrate=N/A speed=29.9x    frame=31019 fps=897 q=-0.0 size=N/A time=00:17:15.00 bitrate=N/A speed=29.9x    frame=31574 fps=900 q=-0.0 size=N/A time=00:17:33.51 bitrate=N/A speed=  30x    frame=32122 fps=902 q=-0.0 size=N/A time=00:17:51.80 bitrate=N/A speed=30.1x    frame=32760 fps=907 q=-0.0 size=N/A time=00:18:13.09 bitrate=N/A speed=30.3x    frame=33353 fps=910 q=-0.0 size=N/A time=00:18:32.87 bitrate=N/A speed=30.4x    frame=33971 fps=914 q=-0.0 size=N/A time=00:18:53.49 bitrate=N/A speed=30.5x    frame=34556 fps=917 q=-0.0 size=N/A time=00:19:13.01 bitrate=N/A speed=30.6x    frame=35156 fps=921 q=-0.0 size=N/A time=00:19:33.03 bitrate=N/A speed=30.7x    frame=35708 fps=923 q=-0.0 size=N/A time=00:19:51.45 bitrate=N/A speed=30.8x    frame=36211 fps=923 q=-0.0 size=N/A time=00:20:08.24 bitrate=N/A speed=30.8x    frame=36738 fps=925 q=-0.0 size=N/A time=00:20:25.82 bitrate=N/A speed=30.8x    frame=37336 fps=927 q=-0.0 size=N/A time=00:20:45.77 bitrate=N/A speed=30.9x    frame=37720 fps=925 q=-0.0 size=N/A time=00:20:58.59 bitrate=N/A speed=30.9x    frame=38054 fps=922 q=-0.0 size=N/A time=00:21:09.73 bitrate=N/A speed=30.8x    frame=38555 fps=922 q=-0.0 size=N/A time=00:21:26.45 bitrate=N/A speed=30.8x    frame=39058 fps=923 q=-0.0 size=N/A time=00:21:43.23 bitrate=N/A speed=30.8x    frame=39423 fps=920 q=-0.0 size=N/A time=00:21:55.41 bitrate=N/A speed=30.7x    frame=39815 fps=919 q=-0.0 size=N/A time=00:22:08.49 bitrate=N/A speed=30.7x    frame=40131 fps=915 q=-0.0 size=N/A time=00:22:19.03 bitrate=N/A speed=30.5x    frame=40353 fps=909 q=-0.0 size=N/A time=00:22:26.44 bitrate=N/A speed=30.3x    frame=40693 fps=907 q=-0.0 size=N/A time=00:22:37.78 bitrate=N/A speed=30.2x    frame=41013 fps=903 q=-0.0 size=N/A time=00:22:48.46 bitrate=N/A speed=30.1x    frame=41435 fps=902 q=-0.0 size=N/A time=00:23:02.54 bitrate=N/A speed=30.1x    frame=41817 fps=900 q=-0.0 size=N/A time=00:23:15.29 bitrate=N/A speed=  30x    frame=42240 fps=899 q=-0.0 size=N/A time=00:23:29.44 bitrate=N/A speed=  30x    frame=42684 fps=899 q=-0.0 size=N/A time=00:23:44.22 bitrate=N/A speed=  30x    [Parsed_psnr_10 @ 0000022957848a80] PSNR y:44.079161 u:46.836767 v:47.134570 average:44.849495 min:35.753383 max:61.040905
[out#0/null @ 000002295728be00] video:18541KiB audio:269976KiB subtitle:0KiB other streams:0KiB global headers:0KiB muxing overhead: unknown
frame=43149 fps=901 q=-0.0 Lsize=N/A time=00:23:59.73 bitrate=N/A speed=30.1x    
